<?xml version="1.0" encoding="utf-8"?>
<!-- Generator: Adobe Illustrator 24.0.2, SVG Export Plug-In . SVG Version: 6.00 Build 0)  -->
<svg version="1.1" xmlns="http://www.w3.org/2000/svg" xmlns:xlink="http://www.w3.org/1999/xlink" x="0px" y="0px"
	 viewBox="0 0 469.64 375.93" style="enable-background:new 0 0 469.64 375.93;" xml:space="preserve">
<style type="text/css">
	.st0{fill:none;stroke:#000000;stroke-width:5;stroke-miterlimit:10;}
	.st1{stroke:#000000;stroke-width:2;stroke-miterlimit:10;}
	.st2{display:none;}
	.st3{display:inline;}
	.st4{fill:#2687AA;}
</style>
<g id="レイヤー_1">
	<path class="st0" d="M319.56,349.44c-39,0-47-15-47-26c0-27,49-40,49-40s-28.24,10.68-30,6c-6-16,32.69-24.41,63-31
		c23-5,53,1,57-64c0.77-12.44-22-7-32-18c-12.15-13.36-27-11-44-7c0,0,4-12-18-32c-3.51-3.19-19,37-19,37c-9,28-38.49,45.36-56,54
		c-31.72,15.65-79,58-118,59c0.34,0.45,22.17,12.87,61,7c28.95-4.38,46-5,48,5c1.75,8.77-30,9-30,9s29.08-1.71,47,0
		c21,2,37.56,43.65-13,58c-74,21-145.89-10.65-169-25c-29-18-64.87-50.58-66-108c-3-153,117-221,213.5-229.5
		c97.12-8.55,208.5,18.5,246.5,146.5c8.8,29.65,2.74,63.15-0.2,74.36C438.11,317.32,350.97,348.32,319.56,349.44"/>
	<path class="st0" d="M322.56,302.44c-11,4-40,13-50,16"/>
	<path class="st0" d="M327.56,317.44c-11,3-43,12-53,14"/>
	<path class="st0" d="M331.56,330.44c-10,3-33,9-47,12"/>
	<path class="st0" d="M267.56,321.44c-15,1-43,1-55,0"/>
	<path class="st0" d="M269.56,335.44c-12,2-47.19,1.81-57.38,1.41"/>
	<path class="st0" d="M264.56,350.44c-11,2-37.69,3.36-52,3"/>
	<path class="st1" d="M129.56,286.44c0,0,26.5-1.5,66.5-28.5c17.25-11.64,49.82-33.54,74-46c33-17,44.5-76.5,45-77
		c2.78-2.78,8.98,6.98,11,9c12,12,9,24,9.5,23.5c0.57-0.57,27.5-10.5,43.5,5.5c10.9,10.9,27.45,10.45,32,15
		c0.5,0.5,0.49,47.11-23.5,61.5c-7.5,4.5-71.83,9.6-92.5,25.5c-13,10,0.89,18.14,0,18c-0.25-0.04-23,11-25,26c0,0-8-20-53-12
		c0,0,21-3,15-11c-2.16-2.88-7.99-5.38-19-6c-9.45-0.53-20.15,2.25-25,3C162.06,296.94,133.06,295.94,129.56,286.44z"/>
</g>
<g id="レイヤー_4">
	<g>
		<g>
			<path d="M104.81,107.77c6.03-0.31,12.06-0.51,18.09-0.75l9.05-0.35c3.02-0.1,6.03-0.29,9.05-0.26
				c12.06,0.07,24.12,0.02,36.19,0.04h72.37h72.37l36.19-0.03c3.02-0.02,6.03,0.18,9.05,0.27l9.05,0.35
				c6.03,0.24,12.06,0.44,18.09,0.74v0.34c-6.03,0.29-12.06,0.5-18.09,0.74l-9.05,0.35c-3.02,0.09-6.03,0.29-9.05,0.27l-36.19-0.03
				h-72.37h-72.37c-12.06,0.02-24.12-0.04-36.19,0.04c-3.02,0.03-6.03-0.16-9.05-0.26l-9.05-0.35c-6.03-0.24-12.06-0.44-18.09-0.75
				V107.77z"/>
			<g>
				<path d="M105,111.89c-2.18,0-3.95-1.77-3.95-3.95S102.82,104,105,104c2.18,0,3.95,1.77,3.95,3.95S107.18,111.89,105,111.89z"/>
			</g>
			<g>
				<path d="M394.11,111.89c2.18,0,3.95-1.77,3.95-3.95s-1.77-3.95-3.95-3.95c-2.18,0-3.95,1.77-3.95,3.95
					S391.93,111.89,394.11,111.89z"/>
			</g>
		</g>
	</g>
	<g>
		<path d="M182.56,55.01c0.5,0.56,0.89,1.22,1.17,1.96c0.28,0.74,0.42,1.6,0.42,2.55c0,0.94-0.17,1.8-0.5,2.58
			c-0.33,0.78-0.77,1.44-1.32,1.99c-0.57,0.56-1.21,0.98-1.91,1.28c-0.7,0.3-1.44,0.45-2.23,0.45c-0.76,0-1.38-0.08-1.87-0.24
			c-0.49-0.16-0.88-0.35-1.19-0.57h-0.1v3.58c0,0.29,0.06,0.53,0.18,0.73c0.12,0.19,0.3,0.33,0.55,0.42c0.2,0.07,0.5,0.14,0.88,0.21
			c0.38,0.07,0.69,0.11,0.94,0.11v0.8h-7.05v-0.8c0.26-0.02,0.52-0.04,0.77-0.06c0.25-0.02,0.47-0.06,0.67-0.12
			c0.26-0.08,0.44-0.22,0.54-0.42c0.1-0.2,0.15-0.44,0.15-0.71V56.08c0-0.24-0.06-0.47-0.19-0.7c-0.13-0.23-0.29-0.41-0.5-0.54
			c-0.15-0.1-0.37-0.17-0.64-0.22c-0.27-0.05-0.54-0.09-0.79-0.1v-0.8l4.3-0.27l0.18,0.14v1.34l0.1,0.02
			c0.44-0.48,0.99-0.89,1.65-1.21c0.66-0.32,1.31-0.48,1.96-0.48c0.78,0,1.5,0.16,2.16,0.47C181.53,54.06,182.09,54.48,182.56,55.01
			z M180.48,63.57c0.34-0.5,0.59-1.08,0.75-1.74s0.24-1.4,0.24-2.21c0-0.6-0.07-1.2-0.2-1.82s-0.35-1.16-0.64-1.62
			c-0.29-0.47-0.67-0.84-1.14-1.13c-0.47-0.29-1.03-0.43-1.69-0.43c-0.63,0-1.17,0.13-1.61,0.39c-0.44,0.26-0.83,0.57-1.15,0.94
			v7.04c0.08,0.22,0.2,0.44,0.38,0.68c0.17,0.23,0.37,0.43,0.58,0.6c0.26,0.2,0.55,0.36,0.86,0.49c0.31,0.12,0.68,0.19,1.13,0.19
			c0.48,0,0.94-0.12,1.38-0.36C179.81,64.34,180.18,64,180.48,63.57z"/>
		<path d="M197.21,62.7c-0.53,0.95-1.24,1.71-2.12,2.27c-0.89,0.56-1.91,0.84-3.06,0.84c-1.02,0-1.9-0.17-2.67-0.51
			s-1.39-0.8-1.89-1.38c-0.49-0.58-0.86-1.26-1.11-2.03c-0.24-0.77-0.36-1.59-0.36-2.45c0-0.77,0.13-1.53,0.39-2.28
			c0.26-0.74,0.64-1.41,1.15-2.01c0.49-0.57,1.09-1.03,1.81-1.38c0.72-0.35,1.53-0.52,2.42-0.52c0.92,0,1.71,0.14,2.37,0.41
			c0.66,0.27,1.19,0.65,1.6,1.12c0.39,0.45,0.68,0.98,0.88,1.59c0.19,0.61,0.29,1.28,0.29,1.99v0.8h-8.36
			c0,0.78,0.08,1.49,0.24,2.13c0.16,0.64,0.41,1.2,0.75,1.68c0.33,0.47,0.77,0.84,1.31,1.11c0.54,0.27,1.18,0.41,1.92,0.41
			c0.76,0,1.41-0.17,1.96-0.5c0.55-0.34,1.08-0.94,1.59-1.81L197.21,62.7z M194.38,58.16c0-0.45-0.04-0.93-0.12-1.44
			c-0.08-0.51-0.21-0.94-0.39-1.29c-0.2-0.37-0.46-0.67-0.81-0.9c-0.34-0.23-0.78-0.35-1.32-0.35c-0.9,0-1.64,0.35-2.23,1.05
			c-0.59,0.7-0.92,1.68-0.97,2.93H194.38z"/>
		<path d="M206.46,64.98c-0.55,0.22-1.08,0.4-1.57,0.55c-0.49,0.15-1.1,0.22-1.82,0.22c-1.06,0-1.8-0.25-2.23-0.75
			c-0.43-0.5-0.65-1.21-0.65-2.13v-8.06h-2.28v-1.16h2.33v-3.71h2.33v3.71h3.62v1.16h-3.6v6.65c0,0.5,0.02,0.92,0.06,1.25
			c0.04,0.33,0.13,0.63,0.28,0.87c0.14,0.23,0.34,0.41,0.61,0.53c0.27,0.12,0.64,0.18,1.1,0.18c0.21,0,0.53-0.02,0.94-0.05
			c0.41-0.04,0.71-0.08,0.88-0.14V64.98z"/>
		<path d="M222.37,59.67c0.35,0.29,0.62,0.62,0.81,1c0.19,0.38,0.28,0.84,0.28,1.39c0,1.1-0.44,2-1.31,2.7
			c-0.87,0.7-2.01,1.05-3.4,1.05c-0.73,0-1.41-0.12-2.03-0.37c-0.62-0.25-1.06-0.48-1.32-0.69l-0.26,0.78h-0.96l-0.13-4.14h0.88
			c0.07,0.31,0.21,0.68,0.44,1.1c0.22,0.42,0.49,0.8,0.81,1.14c0.33,0.36,0.73,0.65,1.2,0.9c0.46,0.24,0.99,0.36,1.57,0.36
			c0.82,0,1.45-0.18,1.89-0.53s0.67-0.86,0.67-1.51c0-0.34-0.07-0.63-0.21-0.87c-0.14-0.25-0.35-0.46-0.62-0.65
			c-0.28-0.19-0.63-0.35-1.04-0.5c-0.41-0.15-0.87-0.3-1.37-0.44c-0.4-0.11-0.85-0.27-1.34-0.46c-0.49-0.2-0.91-0.43-1.26-0.69
			c-0.38-0.28-0.68-0.63-0.92-1.04c-0.24-0.41-0.36-0.89-0.36-1.45c0-0.97,0.38-1.8,1.15-2.47c0.77-0.68,1.8-1.01,3.08-1.01
			c0.49,0,1,0.06,1.52,0.18c0.52,0.12,0.94,0.27,1.26,0.43l0.29-0.63h0.92l0.19,3.83h-0.88c-0.18-0.86-0.56-1.55-1.16-2.09
			c-0.59-0.54-1.32-0.81-2.17-0.81c-0.7,0-1.25,0.17-1.65,0.5c-0.4,0.33-0.6,0.73-0.6,1.2c0,0.36,0.07,0.66,0.2,0.91
			c0.13,0.24,0.33,0.45,0.59,0.62c0.26,0.16,0.58,0.31,0.97,0.45c0.39,0.14,0.87,0.3,1.44,0.48c0.56,0.17,1.09,0.37,1.59,0.59
			C221.63,59.15,222.04,59.4,222.37,59.67z"/>
		<path d="M236.57,62.7c-0.53,0.95-1.24,1.71-2.12,2.27c-0.89,0.56-1.91,0.84-3.06,0.84c-1.01,0-1.9-0.17-2.67-0.51
			c-0.76-0.34-1.39-0.8-1.89-1.38c-0.49-0.58-0.86-1.26-1.11-2.03c-0.24-0.77-0.36-1.59-0.36-2.45c0-0.77,0.13-1.53,0.39-2.28
			c0.26-0.74,0.64-1.41,1.15-2.01c0.49-0.57,1.09-1.03,1.81-1.38c0.72-0.35,1.53-0.52,2.42-0.52c0.92,0,1.71,0.14,2.37,0.41
			c0.66,0.27,1.19,0.65,1.6,1.12c0.39,0.45,0.68,0.98,0.88,1.59c0.19,0.61,0.29,1.28,0.29,1.99v0.8h-8.36
			c0,0.78,0.08,1.49,0.24,2.13c0.16,0.64,0.41,1.2,0.75,1.68c0.33,0.47,0.77,0.84,1.31,1.11s1.18,0.41,1.92,0.41
			c0.76,0,1.41-0.17,1.96-0.5c0.55-0.34,1.08-0.94,1.59-1.81L236.57,62.7z M233.74,58.16c0-0.45-0.04-0.93-0.12-1.44
			c-0.08-0.51-0.21-0.94-0.39-1.29c-0.2-0.37-0.46-0.67-0.81-0.9c-0.34-0.23-0.78-0.35-1.32-0.35c-0.9,0-1.64,0.35-2.23,1.05
			c-0.59,0.7-0.92,1.68-0.97,2.93H233.74z"/>
		<path d="M259.61,65.5h-6.14v-0.8c0.2-0.02,0.39-0.03,0.6-0.05c0.2-0.02,0.38-0.05,0.53-0.1c0.24-0.07,0.42-0.2,0.53-0.38
			c0.12-0.18,0.17-0.42,0.17-0.71v-6.14c0-0.84-0.2-1.48-0.61-1.94c-0.41-0.46-0.91-0.68-1.52-0.68c-0.42,0-0.81,0.06-1.18,0.18
			c-0.37,0.12-0.7,0.29-1.01,0.51c-0.25,0.18-0.45,0.37-0.62,0.57c-0.17,0.2-0.29,0.38-0.38,0.51v6.87c0,0.28,0.05,0.51,0.15,0.69
			c0.1,0.18,0.28,0.32,0.52,0.42c0.2,0.07,0.37,0.13,0.53,0.16c0.16,0.04,0.36,0.06,0.62,0.08v0.8h-6.01v-0.8
			c0.2-0.02,0.39-0.03,0.57-0.05c0.18-0.02,0.35-0.05,0.51-0.1c0.24-0.07,0.42-0.2,0.53-0.38c0.12-0.18,0.17-0.42,0.17-0.71v-6.14
			c0-0.84-0.2-1.48-0.61-1.94c-0.41-0.46-0.91-0.68-1.52-0.68c-0.42,0-0.81,0.06-1.18,0.19c-0.37,0.12-0.71,0.3-1.01,0.51
			c-0.25,0.18-0.46,0.38-0.63,0.6c-0.17,0.22-0.3,0.39-0.38,0.5v6.82c0,0.27,0.06,0.5,0.18,0.69c0.12,0.19,0.3,0.33,0.54,0.42
			c0.18,0.08,0.36,0.14,0.55,0.18c0.19,0.04,0.4,0.07,0.63,0.08v0.8h-6.13v-0.8c0.2-0.02,0.4-0.03,0.61-0.05
			c0.21-0.02,0.39-0.05,0.54-0.1c0.24-0.07,0.42-0.2,0.53-0.38c0.11-0.18,0.17-0.42,0.17-0.71v-7.39c0-0.26-0.06-0.49-0.19-0.69
			c-0.12-0.21-0.3-0.38-0.52-0.52c-0.16-0.1-0.36-0.17-0.6-0.24c-0.24-0.06-0.49-0.1-0.74-0.11v-0.8l4.22-0.27l0.18,0.17v1.7h0.09
			c0.21-0.2,0.47-0.44,0.78-0.71c0.31-0.27,0.59-0.49,0.86-0.66c0.3-0.19,0.67-0.35,1.12-0.48c0.45-0.13,0.93-0.19,1.45-0.19
			c0.82,0,1.52,0.21,2.11,0.62c0.59,0.41,1.01,0.92,1.27,1.5c0.31-0.28,0.58-0.53,0.81-0.74c0.23-0.21,0.54-0.44,0.93-0.68
			c0.32-0.21,0.7-0.38,1.14-0.51c0.44-0.13,0.93-0.19,1.46-0.19c1.06,0,1.91,0.33,2.53,0.99c0.62,0.66,0.93,1.67,0.93,3.04v6.05
			c0,0.28,0.05,0.51,0.15,0.69c0.1,0.18,0.28,0.32,0.52,0.42c0.2,0.07,0.39,0.13,0.58,0.16c0.19,0.04,0.41,0.06,0.65,0.08V65.5z"/>
		<path d="M273.06,65.28c-0.4,0.14-0.75,0.25-1.06,0.33c-0.3,0.09-0.65,0.13-1.03,0.13c-0.66,0-1.2-0.15-1.59-0.44
			c-0.4-0.29-0.65-0.72-0.76-1.29h-0.08c-0.55,0.58-1.15,1.02-1.78,1.33c-0.64,0.31-1.4,0.46-2.3,0.46c-0.95,0-1.73-0.27-2.33-0.82
			c-0.61-0.55-0.92-1.26-0.92-2.15c0-0.46,0.07-0.87,0.2-1.23c0.14-0.36,0.34-0.69,0.61-0.98c0.21-0.24,0.49-0.46,0.84-0.65
			c0.35-0.19,0.68-0.34,0.99-0.45c0.38-0.14,1.16-0.39,2.33-0.76c1.17-0.37,1.96-0.66,2.37-0.87v-1.2c0-0.1-0.02-0.31-0.07-0.6
			c-0.05-0.3-0.15-0.58-0.3-0.84c-0.17-0.3-0.41-0.56-0.72-0.78c-0.31-0.22-0.75-0.33-1.32-0.33c-0.39,0-0.76,0.06-1.09,0.19
			c-0.34,0.12-0.57,0.26-0.71,0.39c0,0.16,0.04,0.4,0.12,0.71c0.08,0.31,0.12,0.6,0.12,0.87c0,0.28-0.13,0.54-0.4,0.77
			s-0.64,0.35-1.12,0.35c-0.43,0-0.74-0.14-0.94-0.43c-0.2-0.29-0.3-0.61-0.3-0.96c0-0.37,0.14-0.72,0.42-1.06
			c0.28-0.34,0.64-0.64,1.08-0.91c0.38-0.23,0.85-0.42,1.39-0.57c0.55-0.16,1.08-0.24,1.6-0.24c0.72,0,1.34,0.05,1.87,0.14
			c0.53,0.09,1.02,0.29,1.45,0.6c0.44,0.3,0.77,0.7,0.99,1.21c0.23,0.51,0.34,1.17,0.34,1.97c0,1.15-0.01,2.17-0.04,3.06
			c-0.03,0.89-0.04,1.86-0.04,2.91c0,0.31,0.06,0.56,0.17,0.75c0.12,0.19,0.29,0.34,0.53,0.47c0.13,0.07,0.33,0.11,0.61,0.12
			s0.56,0.01,0.85,0.01V65.28z M268.6,58.91c-0.73,0.2-1.36,0.4-1.91,0.59c-0.55,0.19-1.05,0.44-1.52,0.73
			c-0.43,0.27-0.76,0.6-1.01,0.97c-0.25,0.38-0.37,0.82-0.37,1.34c0,0.67,0.19,1.16,0.56,1.48c0.37,0.31,0.84,0.47,1.41,0.47
			c0.61,0,1.14-0.14,1.6-0.42c0.46-0.28,0.85-0.61,1.16-0.99L268.6,58.91z"/>
		<path d="M282.11,64.98c-0.55,0.22-1.08,0.4-1.57,0.55c-0.49,0.15-1.1,0.22-1.82,0.22c-1.06,0-1.8-0.25-2.23-0.75
			c-0.43-0.5-0.65-1.21-0.65-2.13v-8.06h-2.28v-1.16h2.33v-3.71h2.33v3.71h3.62v1.16h-3.6v6.65c0,0.5,0.02,0.92,0.06,1.25
			c0.04,0.33,0.13,0.63,0.27,0.87c0.14,0.23,0.34,0.41,0.61,0.53c0.27,0.12,0.64,0.18,1.1,0.18c0.21,0,0.53-0.02,0.94-0.05
			c0.41-0.04,0.71-0.08,0.88-0.14V64.98z"/>
		<path d="M295.31,65.28c-0.4,0.14-0.75,0.25-1.06,0.33c-0.3,0.09-0.65,0.13-1.03,0.13c-0.66,0-1.2-0.15-1.59-0.44
			c-0.4-0.29-0.65-0.72-0.76-1.29h-0.08c-0.55,0.58-1.15,1.02-1.78,1.33c-0.64,0.31-1.4,0.46-2.3,0.46c-0.95,0-1.73-0.27-2.33-0.82
			c-0.61-0.55-0.92-1.26-0.92-2.15c0-0.46,0.07-0.87,0.2-1.23c0.14-0.36,0.34-0.69,0.61-0.98c0.21-0.24,0.49-0.46,0.84-0.65
			c0.35-0.19,0.68-0.34,0.99-0.45c0.38-0.14,1.16-0.39,2.33-0.76c1.17-0.37,1.96-0.66,2.37-0.87v-1.2c0-0.1-0.02-0.31-0.07-0.6
			c-0.05-0.3-0.15-0.58-0.3-0.84c-0.17-0.3-0.41-0.56-0.72-0.78c-0.31-0.22-0.75-0.33-1.32-0.33c-0.39,0-0.76,0.06-1.09,0.19
			c-0.34,0.12-0.57,0.26-0.71,0.39c0,0.16,0.04,0.4,0.12,0.71c0.08,0.31,0.12,0.6,0.12,0.87c0,0.28-0.13,0.54-0.4,0.77
			s-0.64,0.35-1.12,0.35c-0.43,0-0.74-0.14-0.94-0.43c-0.2-0.29-0.3-0.61-0.3-0.96c0-0.37,0.14-0.72,0.42-1.06
			c0.28-0.34,0.64-0.64,1.08-0.91c0.38-0.23,0.85-0.42,1.39-0.57c0.55-0.16,1.08-0.24,1.6-0.24c0.72,0,1.34,0.05,1.87,0.14
			c0.53,0.09,1.02,0.29,1.45,0.6c0.44,0.3,0.77,0.7,0.99,1.21c0.23,0.51,0.34,1.17,0.34,1.97c0,1.15-0.01,2.17-0.04,3.06
			c-0.03,0.89-0.04,1.86-0.04,2.91c0,0.31,0.06,0.56,0.17,0.75c0.12,0.19,0.29,0.34,0.53,0.47c0.13,0.07,0.33,0.11,0.61,0.12
			s0.56,0.01,0.85,0.01V65.28z M290.85,58.91c-0.73,0.2-1.36,0.4-1.91,0.59c-0.55,0.19-1.05,0.44-1.52,0.73
			c-0.43,0.27-0.76,0.6-1.01,0.97c-0.25,0.38-0.37,0.82-0.37,1.34c0,0.67,0.19,1.16,0.56,1.48c0.37,0.31,0.84,0.47,1.41,0.47
			c0.61,0,1.14-0.14,1.6-0.42c0.46-0.28,0.85-0.61,1.16-0.99L290.85,58.91z"/>
		<path d="M306.23,55.13c0,0.41-0.11,0.77-0.32,1.09c-0.21,0.32-0.54,0.48-0.99,0.48c-0.48,0-0.84-0.12-1.09-0.35
			c-0.25-0.23-0.38-0.49-0.38-0.77c0-0.18,0.01-0.34,0.04-0.48s0.06-0.29,0.08-0.43c-0.4,0-0.87,0.15-1.41,0.46s-0.99,0.74-1.37,1.3
			v6.93c0,0.28,0.06,0.51,0.17,0.69c0.12,0.18,0.3,0.31,0.54,0.4c0.21,0.08,0.49,0.14,0.83,0.18c0.34,0.04,0.63,0.07,0.88,0.08v0.8
			h-6.65v-0.8c0.2-0.02,0.4-0.03,0.61-0.05c0.21-0.02,0.39-0.05,0.54-0.1c0.24-0.07,0.42-0.2,0.53-0.38
			c0.12-0.18,0.17-0.42,0.17-0.71v-7.34c0-0.25-0.06-0.49-0.19-0.74c-0.12-0.24-0.3-0.43-0.52-0.58c-0.16-0.1-0.35-0.17-0.58-0.21
			c-0.22-0.04-0.46-0.07-0.72-0.09v-0.8l4.2-0.27l0.18,0.17v1.68h0.06c0.53-0.65,1.12-1.15,1.77-1.48c0.65-0.34,1.24-0.51,1.78-0.51
			c0.54,0,0.97,0.16,1.31,0.49C306.06,54.13,306.23,54.58,306.23,55.13z"/>
		<path d="M306.34,69.39c0-0.4,0.12-0.73,0.35-0.98c0.23-0.25,0.53-0.38,0.88-0.38c0.27,0,0.51,0.05,0.7,0.14
			c0.2,0.1,0.37,0.22,0.52,0.37c0.13,0.12,0.26,0.28,0.41,0.49c0.14,0.21,0.26,0.38,0.35,0.51c0.43-0.22,0.94-0.78,1.53-1.7
			c0.59-0.92,1.02-1.72,1.29-2.41c-0.81-1.91-1.54-3.61-2.2-5.12c-0.66-1.5-1.34-3.06-2.06-4.67c-0.16-0.37-0.44-0.66-0.82-0.86
			c-0.38-0.21-0.77-0.34-1.15-0.39v-0.8h5.76v0.84c-0.26,0.01-0.56,0.06-0.92,0.15c-0.36,0.09-0.54,0.2-0.54,0.32
			c0,0.05,0.02,0.13,0.06,0.24c0.04,0.11,0.08,0.23,0.13,0.35c0.32,0.8,0.82,1.94,1.48,3.44c0.66,1.5,1.18,2.7,1.54,3.6
			c0.38-0.86,0.78-1.75,1.2-2.67c0.41-0.92,0.88-2.01,1.39-3.26c0.06-0.15,0.15-0.36,0.26-0.63c0.11-0.27,0.17-0.5,0.17-0.69
			c0-0.21-0.19-0.4-0.58-0.59c-0.39-0.18-0.76-0.29-1.11-0.33V53.6h4.69v0.75c-0.26,0.04-0.59,0.18-1.01,0.42
			c-0.42,0.24-0.73,0.57-0.93,1.01c-1.02,2.22-1.92,4.24-2.71,6.07c-0.79,1.83-1.39,3.17-1.8,4.03c-0.54,1.13-1.02,2.01-1.44,2.64
			c-0.42,0.63-0.83,1.13-1.23,1.49c-0.39,0.34-0.75,0.57-1.07,0.68c-0.32,0.12-0.65,0.18-0.99,0.18c-0.66,0-1.19-0.15-1.57-0.45
			C306.53,70.12,306.34,69.77,306.34,69.39z"/>
		<path d="M173.58,91.08c-0.4,0.14-0.75,0.25-1.06,0.33c-0.3,0.09-0.65,0.13-1.03,0.13c-0.66,0-1.2-0.15-1.59-0.44
			c-0.4-0.29-0.65-0.72-0.76-1.29h-0.08c-0.55,0.58-1.15,1.02-1.78,1.33c-0.64,0.31-1.4,0.46-2.3,0.46c-0.95,0-1.73-0.27-2.33-0.82
			c-0.61-0.55-0.92-1.26-0.92-2.15c0-0.46,0.07-0.87,0.2-1.23s0.34-0.69,0.61-0.98c0.21-0.24,0.49-0.46,0.84-0.65
			c0.35-0.19,0.68-0.34,0.99-0.45c0.38-0.14,1.16-0.39,2.33-0.76s1.96-0.66,2.37-0.87v-1.2c0-0.1-0.02-0.31-0.07-0.6
			c-0.05-0.3-0.15-0.58-0.3-0.84c-0.17-0.3-0.41-0.56-0.72-0.78c-0.31-0.22-0.75-0.33-1.32-0.33c-0.39,0-0.76,0.06-1.09,0.19
			c-0.34,0.12-0.57,0.26-0.71,0.39c0,0.16,0.04,0.4,0.12,0.71c0.08,0.31,0.12,0.6,0.12,0.87c0,0.28-0.13,0.54-0.4,0.77
			s-0.64,0.35-1.12,0.35c-0.43,0-0.74-0.14-0.94-0.43c-0.2-0.29-0.3-0.61-0.3-0.96c0-0.37,0.14-0.72,0.42-1.06
			c0.28-0.34,0.64-0.64,1.08-0.91c0.38-0.23,0.85-0.42,1.39-0.57c0.55-0.16,1.08-0.24,1.6-0.24c0.72,0,1.34,0.05,1.87,0.14
			c0.53,0.09,1.02,0.29,1.45,0.6c0.44,0.3,0.77,0.7,0.99,1.21c0.23,0.51,0.34,1.17,0.34,1.97c0,1.15-0.01,2.17-0.04,3.06
			c-0.03,0.89-0.04,1.86-0.04,2.91c0,0.31,0.06,0.56,0.17,0.75c0.12,0.19,0.29,0.34,0.53,0.47c0.13,0.07,0.33,0.11,0.61,0.12
			c0.28,0.01,0.56,0.01,0.85,0.01V91.08z M169.11,84.71c-0.73,0.2-1.36,0.4-1.91,0.59c-0.55,0.19-1.05,0.44-1.52,0.73
			c-0.43,0.27-0.76,0.6-1.01,0.97c-0.25,0.38-0.37,0.82-0.37,1.34c0,0.67,0.19,1.16,0.56,1.48c0.37,0.31,0.84,0.47,1.41,0.47
			c0.61,0,1.14-0.14,1.6-0.42c0.46-0.28,0.85-0.61,1.16-0.99L169.11,84.71z"/>
		<path d="M188.77,91.3h-6.17v-0.8c0.2-0.02,0.41-0.03,0.65-0.05c0.23-0.02,0.43-0.05,0.58-0.1c0.24-0.07,0.42-0.2,0.53-0.38
			c0.12-0.18,0.17-0.42,0.17-0.71v-6.12c0-0.84-0.21-1.5-0.63-1.96c-0.42-0.46-0.94-0.69-1.55-0.69c-0.45,0-0.87,0.07-1.24,0.2
			c-0.38,0.13-0.71,0.3-1,0.49c-0.28,0.19-0.51,0.38-0.67,0.6c-0.17,0.21-0.29,0.38-0.37,0.51v6.84c0,0.27,0.06,0.5,0.18,0.68
			c0.12,0.18,0.3,0.31,0.54,0.41c0.18,0.08,0.37,0.14,0.58,0.18c0.21,0.04,0.42,0.07,0.65,0.08v0.8h-6.18v-0.8
			c0.2-0.02,0.4-0.03,0.61-0.05c0.21-0.02,0.39-0.05,0.54-0.1c0.24-0.07,0.42-0.2,0.53-0.38c0.12-0.18,0.17-0.42,0.17-0.71v-7.34
			c0-0.27-0.06-0.52-0.19-0.75c-0.12-0.23-0.3-0.42-0.52-0.56c-0.16-0.1-0.35-0.17-0.58-0.21c-0.22-0.04-0.46-0.07-0.72-0.09v-0.8
			l4.2-0.27l0.18,0.17v1.68h0.06c0.2-0.19,0.46-0.42,0.77-0.69c0.31-0.27,0.6-0.49,0.87-0.66c0.32-0.19,0.69-0.35,1.13-0.48
			c0.44-0.13,0.93-0.19,1.47-0.19c1.21,0,2.11,0.36,2.69,1.07c0.58,0.71,0.88,1.66,0.88,2.84v6.19c0,0.28,0.05,0.51,0.15,0.68
			c0.1,0.17,0.28,0.31,0.52,0.4c0.2,0.08,0.38,0.14,0.53,0.17c0.15,0.03,0.36,0.06,0.62,0.07V91.3z"/>
		<path d="M204.13,91.08l-4.41,0.27l-0.19-0.17v-1.11l-0.1-0.02c-0.44,0.47-0.99,0.85-1.64,1.15c-0.65,0.3-1.32,0.45-2.01,0.45
			c-0.72,0-1.41-0.15-2.08-0.45c-0.67-0.3-1.25-0.73-1.74-1.27c-0.5-0.56-0.9-1.22-1.2-2c-0.29-0.78-0.44-1.64-0.44-2.58
			c0-0.86,0.16-1.68,0.47-2.45s0.75-1.45,1.3-2.03c0.52-0.54,1.16-0.97,1.91-1.29c0.75-0.32,1.52-0.48,2.31-0.48
			c0.59,0,1.16,0.07,1.73,0.21c0.57,0.14,1.05,0.32,1.46,0.54v-4.15c0-0.34-0.06-0.65-0.18-0.93c-0.12-0.28-0.29-0.49-0.5-0.64
			c-0.24-0.15-0.56-0.26-0.97-0.33c-0.41-0.07-0.84-0.12-1.31-0.15v-0.75l5.17-0.27l0.19,0.18v16.04c0,0.28,0.06,0.52,0.17,0.72
			c0.11,0.2,0.28,0.36,0.51,0.5c0.16,0.1,0.4,0.16,0.7,0.18c0.31,0.02,0.59,0.04,0.84,0.05V91.08z M199.5,88.99v-6.96
			c-0.07-0.21-0.18-0.43-0.33-0.68c-0.15-0.24-0.34-0.46-0.57-0.66c-0.25-0.2-0.54-0.37-0.87-0.5c-0.33-0.13-0.72-0.2-1.16-0.2
			c-0.51,0-0.98,0.12-1.41,0.37c-0.43,0.25-0.81,0.61-1.14,1.07c-0.31,0.45-0.56,1.02-0.75,1.72c-0.18,0.7-0.27,1.47-0.27,2.31
			c0,0.68,0.07,1.29,0.2,1.84c0.14,0.55,0.37,1.06,0.69,1.54c0.3,0.45,0.68,0.81,1.14,1.09c0.46,0.27,1.01,0.41,1.65,0.41
			c0.68,0,1.24-0.14,1.69-0.42C198.82,89.64,199.19,89.33,199.5,88.99z"/>
		<path d="M217.52,91.61c-1.83,0-3.25-0.57-4.29-1.71c-1.03-1.14-1.55-2.68-1.55-4.6c0-0.84,0.14-1.62,0.42-2.35
			c0.28-0.73,0.68-1.39,1.21-1.99c0.5-0.57,1.13-1.03,1.89-1.38c0.76-0.35,1.59-0.52,2.48-0.52c1.24,0,2.24,0.28,3.02,0.84
			c0.78,0.56,1.16,1.32,1.16,2.29c0,0.4-0.1,0.76-0.31,1.07c-0.2,0.31-0.54,0.46-1.01,0.46c-0.5,0-0.89-0.12-1.17-0.36
			c-0.28-0.24-0.42-0.51-0.42-0.81c0-0.36,0.05-0.73,0.15-1.11c0.1-0.38,0.16-0.66,0.18-0.84c-0.15-0.25-0.38-0.42-0.68-0.5
			c-0.3-0.08-0.63-0.13-0.98-0.13c-0.41,0-0.8,0.08-1.17,0.25c-0.37,0.16-0.73,0.47-1.08,0.91c-0.31,0.4-0.57,0.95-0.77,1.63
			c-0.2,0.68-0.29,1.5-0.29,2.45c0,1.5,0.35,2.72,1.05,3.66c0.7,0.95,1.62,1.42,2.77,1.42c0.83,0,1.52-0.19,2.08-0.57
			c0.56-0.38,1.08-0.95,1.55-1.71l0.82,0.51c-0.56,0.95-1.31,1.7-2.23,2.26C219.45,91.33,218.5,91.61,217.52,91.61z"/>
		<path d="M233.24,80.93c0,0.41-0.11,0.77-0.32,1.09c-0.21,0.32-0.54,0.48-0.99,0.48c-0.48,0-0.84-0.12-1.09-0.35
			c-0.25-0.23-0.38-0.49-0.38-0.77c0-0.18,0.01-0.34,0.04-0.48c0.03-0.14,0.06-0.29,0.08-0.43c-0.4,0-0.87,0.15-1.41,0.46
			c-0.54,0.31-0.99,0.74-1.37,1.3v6.93c0,0.28,0.06,0.51,0.17,0.69c0.12,0.18,0.3,0.31,0.54,0.4c0.21,0.08,0.49,0.14,0.83,0.18
			c0.34,0.04,0.63,0.07,0.88,0.08v0.8h-6.65v-0.8c0.2-0.02,0.4-0.03,0.61-0.05c0.21-0.02,0.39-0.05,0.54-0.1
			c0.24-0.07,0.42-0.2,0.53-0.38c0.12-0.18,0.17-0.42,0.17-0.71v-7.34c0-0.25-0.06-0.49-0.19-0.74c-0.12-0.24-0.3-0.43-0.52-0.58
			c-0.16-0.1-0.35-0.17-0.58-0.21c-0.22-0.04-0.46-0.07-0.72-0.09v-0.8l4.2-0.27l0.18,0.17v1.68h0.06c0.53-0.65,1.12-1.15,1.77-1.48
			c0.65-0.34,1.24-0.51,1.78-0.51c0.54,0,0.97,0.16,1.31,0.49S233.24,80.37,233.24,80.93z"/>
		<path d="M245.53,88.5c-0.53,0.95-1.24,1.71-2.12,2.27c-0.89,0.56-1.91,0.84-3.06,0.84c-1.02,0-1.9-0.17-2.67-0.51
			c-0.76-0.34-1.39-0.8-1.89-1.38c-0.49-0.58-0.86-1.26-1.11-2.03c-0.24-0.77-0.36-1.59-0.36-2.45c0-0.77,0.13-1.53,0.39-2.28
			c0.26-0.74,0.64-1.41,1.15-2.01c0.49-0.57,1.09-1.03,1.81-1.38c0.72-0.35,1.53-0.52,2.42-0.52c0.92,0,1.71,0.14,2.37,0.41
			c0.66,0.27,1.19,0.65,1.6,1.12c0.39,0.45,0.68,0.98,0.88,1.59c0.19,0.61,0.29,1.28,0.29,1.99v0.8h-8.36
			c0,0.78,0.08,1.49,0.24,2.13s0.41,1.2,0.75,1.68c0.33,0.47,0.77,0.84,1.31,1.11c0.54,0.27,1.18,0.41,1.92,0.41
			c0.76,0,1.41-0.17,1.96-0.5c0.55-0.34,1.08-0.94,1.59-1.81L245.53,88.5z M242.7,83.96c0-0.45-0.04-0.93-0.12-1.44
			c-0.08-0.51-0.21-0.94-0.39-1.29c-0.2-0.37-0.46-0.67-0.81-0.9c-0.34-0.23-0.78-0.35-1.32-0.35c-0.9,0-1.64,0.35-2.23,1.05
			c-0.59,0.7-0.92,1.68-0.97,2.93H242.7z"/>
		<path d="M268.57,91.3h-6.14v-0.8c0.2-0.02,0.39-0.03,0.6-0.05c0.2-0.02,0.38-0.05,0.53-0.1c0.24-0.07,0.42-0.2,0.53-0.38
			c0.12-0.18,0.17-0.42,0.17-0.71v-6.14c0-0.84-0.2-1.48-0.61-1.94c-0.41-0.46-0.91-0.68-1.52-0.68c-0.42,0-0.81,0.06-1.18,0.18
			c-0.37,0.12-0.7,0.29-1.01,0.51c-0.25,0.18-0.45,0.37-0.62,0.57c-0.17,0.2-0.29,0.38-0.38,0.51v6.87c0,0.28,0.05,0.51,0.15,0.69
			c0.1,0.18,0.28,0.32,0.52,0.42c0.2,0.07,0.37,0.13,0.53,0.16c0.16,0.04,0.36,0.06,0.62,0.08v0.8h-6.01v-0.8
			c0.2-0.02,0.39-0.03,0.57-0.05c0.18-0.02,0.35-0.05,0.51-0.1c0.24-0.07,0.42-0.2,0.53-0.38c0.12-0.18,0.17-0.42,0.17-0.71v-6.14
			c0-0.84-0.2-1.48-0.61-1.94c-0.41-0.46-0.91-0.68-1.52-0.68c-0.42,0-0.81,0.06-1.18,0.19c-0.37,0.12-0.71,0.3-1.01,0.51
			c-0.25,0.18-0.46,0.38-0.63,0.6c-0.17,0.22-0.3,0.39-0.38,0.5v6.82c0,0.27,0.06,0.5,0.18,0.69c0.12,0.19,0.3,0.33,0.54,0.42
			c0.18,0.08,0.36,0.14,0.55,0.18c0.19,0.04,0.4,0.07,0.63,0.08v0.8h-6.13v-0.8c0.2-0.02,0.4-0.03,0.61-0.05
			c0.21-0.02,0.39-0.05,0.54-0.1c0.24-0.07,0.42-0.2,0.53-0.38c0.11-0.18,0.17-0.42,0.17-0.71v-7.39c0-0.26-0.06-0.49-0.19-0.69
			c-0.12-0.21-0.3-0.38-0.52-0.52c-0.16-0.1-0.36-0.17-0.6-0.24c-0.24-0.06-0.49-0.1-0.74-0.11v-0.8l4.22-0.27l0.18,0.17v1.7h0.09
			c0.21-0.2,0.47-0.44,0.78-0.71c0.31-0.27,0.59-0.49,0.86-0.66c0.3-0.19,0.67-0.35,1.12-0.48c0.45-0.13,0.93-0.19,1.45-0.19
			c0.82,0,1.52,0.21,2.11,0.62c0.59,0.41,1.01,0.92,1.27,1.5c0.31-0.28,0.58-0.53,0.81-0.74c0.23-0.21,0.54-0.44,0.93-0.68
			c0.32-0.21,0.7-0.38,1.14-0.51c0.44-0.13,0.93-0.19,1.46-0.19c1.06,0,1.91,0.33,2.53,0.99c0.62,0.66,0.93,1.67,0.93,3.04v6.05
			c0,0.28,0.05,0.51,0.15,0.69c0.1,0.18,0.28,0.32,0.52,0.42c0.2,0.07,0.39,0.13,0.58,0.16c0.19,0.04,0.41,0.06,0.65,0.08V91.3z"/>
		<path d="M282.02,91.08c-0.4,0.14-0.75,0.25-1.06,0.33c-0.3,0.09-0.65,0.13-1.03,0.13c-0.66,0-1.2-0.15-1.59-0.44
			c-0.4-0.29-0.65-0.72-0.76-1.29h-0.08c-0.55,0.58-1.15,1.02-1.78,1.33c-0.64,0.31-1.4,0.46-2.3,0.46c-0.95,0-1.73-0.27-2.33-0.82
			c-0.61-0.55-0.92-1.26-0.92-2.15c0-0.46,0.07-0.87,0.2-1.23c0.14-0.36,0.34-0.69,0.61-0.98c0.21-0.24,0.49-0.46,0.84-0.65
			c0.35-0.19,0.68-0.34,0.99-0.45c0.38-0.14,1.16-0.39,2.33-0.76c1.17-0.37,1.96-0.66,2.37-0.87v-1.2c0-0.1-0.02-0.31-0.07-0.6
			c-0.05-0.3-0.15-0.58-0.3-0.84c-0.17-0.3-0.41-0.56-0.72-0.78c-0.31-0.22-0.75-0.33-1.32-0.33c-0.39,0-0.76,0.06-1.09,0.19
			c-0.34,0.12-0.57,0.26-0.71,0.39c0,0.16,0.04,0.4,0.12,0.71c0.08,0.31,0.12,0.6,0.12,0.87c0,0.28-0.13,0.54-0.4,0.77
			s-0.64,0.35-1.12,0.35c-0.43,0-0.74-0.14-0.94-0.43c-0.2-0.29-0.3-0.61-0.3-0.96c0-0.37,0.14-0.72,0.42-1.06
			c0.28-0.34,0.64-0.64,1.08-0.91c0.38-0.23,0.85-0.42,1.39-0.57c0.55-0.16,1.08-0.24,1.6-0.24c0.72,0,1.34,0.05,1.87,0.14
			c0.53,0.09,1.02,0.29,1.45,0.6c0.44,0.3,0.77,0.7,0.99,1.21c0.23,0.51,0.34,1.17,0.34,1.97c0,1.15-0.01,2.17-0.04,3.06
			c-0.03,0.89-0.04,1.86-0.04,2.91c0,0.31,0.06,0.56,0.17,0.75c0.12,0.19,0.29,0.34,0.53,0.47c0.13,0.07,0.33,0.11,0.61,0.12
			s0.56,0.01,0.85,0.01V91.08z M277.55,84.71c-0.73,0.2-1.36,0.4-1.91,0.59c-0.55,0.19-1.05,0.44-1.52,0.73
			c-0.43,0.27-0.76,0.6-1.01,0.97c-0.25,0.38-0.37,0.82-0.37,1.34c0,0.67,0.19,1.16,0.56,1.48c0.37,0.31,0.84,0.47,1.41,0.47
			c0.61,0,1.14-0.14,1.6-0.42c0.46-0.28,0.85-0.61,1.16-0.99L277.55,84.71z"/>
		<path d="M291.06,90.78c-0.55,0.22-1.08,0.4-1.57,0.55c-0.49,0.15-1.1,0.22-1.82,0.22c-1.06,0-1.8-0.25-2.23-0.75
			c-0.43-0.5-0.65-1.21-0.65-2.13V80.6h-2.28v-1.16h2.33v-3.71h2.33v3.71h3.62v1.16h-3.6v6.65c0,0.5,0.02,0.92,0.06,1.25
			c0.04,0.33,0.13,0.63,0.28,0.87c0.14,0.23,0.34,0.41,0.61,0.53c0.27,0.12,0.64,0.18,1.1,0.18c0.21,0,0.53-0.02,0.94-0.05
			c0.41-0.04,0.71-0.08,0.88-0.14V90.78z"/>
		<path d="M298.43,91.3h-6.09v-0.8c0.2-0.02,0.4-0.03,0.61-0.05c0.21-0.02,0.39-0.05,0.54-0.1c0.24-0.07,0.42-0.2,0.53-0.38
			c0.12-0.18,0.17-0.42,0.17-0.71v-7.34c0-0.26-0.06-0.49-0.19-0.71c-0.12-0.21-0.3-0.39-0.52-0.54c-0.16-0.1-0.4-0.18-0.7-0.25
			c-0.31-0.07-0.59-0.11-0.84-0.13v-0.8l4.45-0.27l0.18,0.17v9.71c0,0.28,0.06,0.51,0.17,0.7c0.11,0.19,0.29,0.32,0.54,0.41
			c0.19,0.07,0.37,0.13,0.55,0.18c0.18,0.04,0.38,0.07,0.6,0.09V91.3z M296.84,74.55c0,0.46-0.16,0.86-0.48,1.2
			c-0.32,0.34-0.71,0.51-1.18,0.51c-0.44,0-0.81-0.16-1.13-0.49c-0.32-0.33-0.48-0.7-0.48-1.12c0-0.44,0.16-0.83,0.48-1.16
			c0.32-0.33,0.7-0.49,1.13-0.49c0.49,0,0.88,0.15,1.2,0.46C296.68,73.78,296.84,74.14,296.84,74.55z"/>
		<path d="M312.3,85.22c0,0.84-0.14,1.66-0.42,2.47c-0.28,0.81-0.68,1.5-1.2,2.06c-0.59,0.64-1.27,1.12-2.05,1.44
			c-0.78,0.31-1.65,0.47-2.61,0.47c-0.8,0-1.57-0.14-2.29-0.43c-0.73-0.29-1.37-0.7-1.93-1.25c-0.55-0.54-1-1.2-1.33-1.97
			c-0.33-0.78-0.49-1.65-0.49-2.61c0-1.86,0.57-3.38,1.72-4.56c1.15-1.18,2.65-1.77,4.52-1.77c1.77,0,3.23,0.56,4.37,1.68
			C311.73,81.86,312.3,83.36,312.3,85.22z M309.66,85.25c0-0.6-0.06-1.24-0.19-1.91c-0.13-0.67-0.32-1.24-0.58-1.71
			c-0.27-0.5-0.63-0.9-1.08-1.2c-0.44-0.3-0.99-0.45-1.63-0.45c-0.66,0-1.22,0.15-1.69,0.46c-0.47,0.31-0.84,0.72-1.13,1.26
			c-0.27,0.49-0.47,1.05-0.58,1.68c-0.11,0.63-0.17,1.24-0.17,1.82c0,0.77,0.07,1.49,0.2,2.14c0.13,0.66,0.34,1.24,0.63,1.76
			c0.29,0.51,0.66,0.92,1.1,1.21c0.44,0.29,0.99,0.44,1.63,0.44c1.07,0,1.91-0.49,2.54-1.46C309.34,88.31,309.66,86.96,309.66,85.25
			z"/>
		<path d="M328.06,91.3h-6.17v-0.8c0.2-0.02,0.41-0.03,0.65-0.05c0.23-0.02,0.43-0.05,0.58-0.1c0.24-0.07,0.42-0.2,0.53-0.38
			c0.12-0.18,0.17-0.42,0.17-0.71v-6.12c0-0.84-0.21-1.5-0.63-1.96c-0.42-0.46-0.94-0.69-1.55-0.69c-0.45,0-0.87,0.07-1.24,0.2
			c-0.38,0.13-0.71,0.3-1,0.49c-0.28,0.19-0.51,0.38-0.67,0.6c-0.17,0.21-0.29,0.38-0.37,0.51v6.84c0,0.27,0.06,0.5,0.18,0.68
			c0.12,0.18,0.3,0.31,0.54,0.41c0.18,0.08,0.37,0.14,0.58,0.18c0.21,0.04,0.42,0.07,0.65,0.08v0.8h-6.18v-0.8
			c0.2-0.02,0.4-0.03,0.61-0.05c0.21-0.02,0.39-0.05,0.54-0.1c0.24-0.07,0.42-0.2,0.53-0.38c0.12-0.18,0.17-0.42,0.17-0.71v-7.34
			c0-0.27-0.06-0.52-0.19-0.75c-0.12-0.23-0.3-0.42-0.52-0.56c-0.16-0.1-0.35-0.17-0.58-0.21c-0.22-0.04-0.46-0.07-0.72-0.09v-0.8
			l4.2-0.27l0.18,0.17v1.68h0.06c0.2-0.19,0.46-0.42,0.77-0.69c0.31-0.27,0.6-0.49,0.87-0.66c0.32-0.19,0.69-0.35,1.13-0.48
			c0.44-0.13,0.93-0.19,1.47-0.19c1.21,0,2.11,0.36,2.69,1.07c0.58,0.71,0.88,1.66,0.88,2.84v6.19c0,0.28,0.05,0.51,0.15,0.68
			c0.1,0.17,0.28,0.31,0.52,0.4c0.2,0.08,0.38,0.14,0.53,0.17c0.15,0.03,0.36,0.06,0.62,0.07V91.3z"/>
	</g>
</g>
<g id="レイヤー_2" class="st2">
	<g class="st3">
		<path d="M125.86,241.94c-3.85,0-5.77-1.85-5.77-5.56c0-2.2,1.44-3.84,4.33-4.95c3.16-1.1,5.63-2.51,7.42-4.22
			c1.78-1.72,2.33-3.54,1.65-5.46l-6.18-19.78c-2.06-0.55-4.02-0.93-5.87-1.13c-1.85-0.21-4.02-0.24-6.49-0.1
			c-2.75,0.69-5.5,1.07-8.24,1.13c-2.75,0.07-5.08-0.24-7.01-0.93c-2.2-0.69-3.71-1.61-4.53-2.78c-0.82-1.17-1.24-2.51-1.24-4.02
			c0-2.88,1.06-4.81,3.19-5.77c2.13-0.96,5.25-1.44,9.38-1.44c2.2,0,4.7,0.04,7.52,0.1c2.81,0.07,4.84-0.52,6.08-1.75
			c-0.28-1.65-1.07-4.57-2.37-8.76c-1.31-4.19-2.78-8.62-4.43-13.29c-1.65-4.67-3.23-9-4.74-12.98c-1.51-3.98-2.54-6.59-3.09-7.83
			c-1.79,3.57-3.91,8.83-6.39,15.76c-2.47,6.94-5.43,15.35-8.86,25.24c-3.99,10.99-6.84,19.85-8.55,26.58
			c-1.72,6.73-2.58,11.33-2.58,13.81c0,3.44,1.85,5.84,5.56,7.21c3.71,1.38,5.56,3.16,5.56,5.36c0,3.71-1.92,5.56-5.77,5.56H50.85
			c-1.92,0-3.06-0.52-3.4-1.55c-0.34-1.03-0.52-2.51-0.52-4.43c3.71-2.88,7.14-5.7,10.3-8.45c3.16-2.75,5.29-5.49,6.39-8.24
			c6.59-18.82,12.81-37.57,18.65-56.25c5.84-18.68,11.92-37.57,18.24-56.66c0.96-2.33,2.51-4.15,4.64-5.46
			c2.13-1.3,4.43-1.96,6.9-1.96c2.88,0,5.91,0.55,9.07,1.65c3.16,1.1,5.22,2.75,6.18,4.95c6.59,18.82,13.19,37.54,19.78,56.15
			c6.59,18.62,13.19,37.33,19.78,56.15c0.69,2.06,2.06,3.81,4.12,5.25c2.06,1.44,4.95,3.54,8.65,6.28c1.92,1.38,3.64,2.61,5.15,3.71
			c1.51,1.1,2.27,2.2,2.27,3.3c0,3.71-1.85,5.56-5.56,5.56H125.86z"/>
		<path d="M206.29,190.15c-0.93,0-2.07-0.06-3.41-0.17c-1.34-0.12-2.62-0.38-3.85-0.79c-1.22-0.41-2.25-0.99-3.06-1.75
			c-0.82-0.76-1.22-1.66-1.22-2.71c0-1.51,0.7-2.74,2.1-3.67c1.4-0.93,3.67-1.4,6.82-1.4c2.8,0,5.1-0.58,6.91-1.75
			c1.81-1.16,3.24-2.71,4.29-4.64c1.05-1.92,1.75-4.11,2.1-6.56s0.47-4.96,0.35-7.52c0-2.91-0.38-5.8-1.14-8.66
			c-0.76-2.86-1.81-5.39-3.15-7.61c-1.34-2.21-3.03-3.99-5.07-5.34c-2.04-1.34-4.35-2.01-6.91-2.01c-2.57,0-4.9,0.79-7,2.36
			c-2.1,1.57-3.15,3.65-3.15,6.21v65.61c0,2.68,1.46,4.43,4.37,5.25c2.91,1.05,4.37,2.39,4.37,4.02c0,2.45-1.17,3.67-3.5,3.67
			h-32.89c-2.33,0-3.5-1.22-3.5-3.67c0-1.51,1.46-2.8,4.37-3.85c2.91-0.82,4.37-2.62,4.37-5.42v-65.61c0-1.63-1.34-2.91-4.02-3.85
			c-2.8-0.82-4.2-2.21-4.2-4.2c0-1.28,0.87-2.45,2.62-3.5s3.94-1.95,6.56-2.71c2.62-0.76,5.57-1.43,8.84-2.01
			c3.26-0.58,6.39-1.05,9.36-1.4c2.97-0.35,5.63-0.61,7.96-0.79c2.33-0.17,3.96-0.26,4.9-0.26c4.55,0,9.16,0.61,13.82,1.84
			c4.66,1.22,8.89,3.15,12.68,5.77c3.79,2.62,6.91,5.92,9.36,9.89c2.45,3.97,3.67,8.63,3.67,14c0,5.72-0.82,10.67-2.45,14.87
			c-1.63,4.2-3.94,7.7-6.91,10.5s-6.56,4.84-10.76,6.12C215.74,189.68,211.19,190.27,206.29,190.15z"/>
		<path d="M274.99,151.94c-2.53,0-7.03-4.66-13.48-13.97c-6.21-9.23-9.31-15.32-9.31-18.26c0-1.06,2.25-2.49,6.74-4.29
			c2.29-0.9,3.96-2.39,5.02-4.47c1.06-2.08,1.59-4.59,1.59-7.54c0-1.47-0.18-2.92-0.55-4.35c-0.37-1.43-0.94-2.71-1.72-3.86
			c-0.78-1.14-1.76-2.08-2.94-2.82c-1.19-0.74-2.59-1.14-4.23-1.23c-0.98,0-1.96,0.12-2.94,0.37c-0.98,0.25-1.9,0.61-2.76,1.1
			c-0.86,0.49-1.55,1.1-2.08,1.84c-0.53,0.74-0.8,1.55-0.8,2.45v45.95c0,1.72,1.02,2.94,3.06,3.68c2.04,0.74,3.06,1.63,3.06,2.7
			c0,1.8-0.82,2.7-2.45,2.7h-23.16c-1.63,0-2.45-0.9-2.45-2.7c0-1.14,1.02-2,3.06-2.57c2.12-0.74,3.19-2,3.19-3.8V96.93
			c0-1.06-0.98-1.92-2.94-2.57c-1.96-0.57-2.94-1.55-2.94-2.94c0-0.82,0.65-1.59,1.96-2.33c1.31-0.74,2.96-1.37,4.96-1.9
			c2-0.53,4.19-1,6.55-1.41c2.37-0.41,4.68-0.75,6.92-1.04c2.25-0.29,4.23-0.49,5.94-0.61s2.9-0.18,3.55-0.18
			c3.1,0,6.17,0.37,9.19,1.1c3.02,0.74,5.74,1.86,8.15,3.37c2.41,1.51,4.37,3.47,5.88,5.88c1.51,2.41,2.27,5.29,2.27,8.64
			c0,2.29-0.37,4.23-1.1,5.82c-0.74,1.59-1.74,3.04-3,4.35c-1.27,1.31-2.74,2.51-4.41,3.61c-1.68,1.1-3.41,2.31-5.21,3.61
			c1.39,4.82,4.29,10.01,8.7,15.56c2.21,2.7,4.49,4.92,6.86,6.68c2.37,1.76,4.53,3.33,6.49,4.72c0.82,0.57,1.27,1.12,1.35,1.65
			c0.08,0.53-0.04,1.02-0.37,1.47c-0.33,0.45-0.8,0.82-1.41,1.1c-0.61,0.29-1.16,0.43-1.65,0.43H274.99z"/>
		<path d="M287.87,131.54c-1.28,0-1.91-0.7-1.91-2.11c0-0.89,0.8-1.56,2.39-2.01c1.59-0.57,2.39-1.56,2.39-2.97V85.6
			c0-1.4-0.8-2.39-2.39-2.97c-1.6-0.45-2.39-1.15-2.39-2.11c0-1.34,0.64-2.01,1.91-2.01h17.99c1.28,0,1.91,0.67,1.91,2.01
			c0,0.89-0.83,1.6-2.49,2.11c-1.6,0.57-2.39,1.56-2.39,2.97v38.86c0,1.4,0.8,2.39,2.39,2.97c1.66,0.51,2.49,1.18,2.49,2.01
			c0,1.4-0.64,2.11-1.91,2.11H287.87z"/>
		<path d="M324.54,105.38c0.97,0.4,1.97,0.6,3,0.6c0.51,0,1.23-0.04,2.14-0.13c0.91-0.09,1.65-0.13,2.23-0.13
			c1.25,0,2.27,0.21,3.04,0.64c0.77,0.43,1.16,1.21,1.16,2.35c0,1.14-0.4,1.91-1.2,2.31c-0.8,0.4-1.88,0.6-3.25,0.6
			c-1.08,0-2.08-0.04-3-0.13c-0.91-0.09-1.4-0.13-1.46-0.13c-0.46,0-1.04,0.11-1.75,0.34c-0.71,0.23-1.07,0.83-1.07,1.8v14.98
			c0,1.2,0.24,1.88,0.73,2.05c0.48,0.17,1.18,0.29,2.1,0.34c1.03,0.06,2.3,0.1,3.81,0.13c1.51,0.03,2.98,0.01,4.41-0.04
			c1.14-0.06,2.23-0.27,3.25-0.64c1.03-0.37,1.91-0.93,2.65-1.67c0.86-0.86,1.58-1.54,2.18-2.05s0.98-0.77,1.16-0.77
			c0.51-0.06,0.97,0.04,1.37,0.3c0.4,0.26,0.6,0.64,0.6,1.16c0,0.29-0.12,0.74-0.34,1.37c-0.23,0.63-0.51,1.33-0.86,2.1
			c-0.34,0.77-0.71,1.53-1.11,2.27c-0.4,0.74-0.77,1.31-1.11,1.71c-0.4,0.46-0.93,0.77-1.58,0.94c-0.66,0.17-1.07,0.26-1.24,0.26
			h-29.45c-0.57,0-1-0.18-1.28-0.56c-0.29-0.37-0.43-0.87-0.43-1.5c0-0.4,0.23-0.71,0.68-0.94c0.46-0.23,0.94-0.46,1.46-0.68
			c0.51-0.23,1-0.54,1.46-0.94c0.46-0.4,0.68-0.97,0.68-1.71V94.86c0-0.68-0.23-1.23-0.68-1.63c-0.46-0.4-0.94-0.74-1.46-1.03
			c-0.51-0.28-1-0.56-1.46-0.81c-0.46-0.26-0.68-0.61-0.68-1.07c0-1.2,0.57-1.8,1.71-1.8h27.99c0.68,0,1.33,0.21,1.93,0.64
			s1.14,0.98,1.63,1.67c0.48,0.68,0.88,1.46,1.2,2.31c0.31,0.86,0.47,1.71,0.47,2.57c0,0.17-0.07,0.4-0.21,0.68
			c-0.14,0.29-0.33,0.51-0.56,0.68c-0.23,0.17-0.49,0.29-0.77,0.34c-0.29,0.06-0.6-0.06-0.94-0.34c-1.31-1.03-2.35-1.81-3.12-2.35
			c-0.77-0.54-1.58-0.96-2.44-1.24c-0.86-0.28-1.87-0.46-3.04-0.51c-1.17-0.06-2.75-0.09-4.75-0.09c-1.66,0-2.73,0.23-3.21,0.68
			c-0.49,0.46-0.73,1.08-0.73,1.88c0,2.23,0.01,3.98,0.04,5.26c0.03,1.28,0.04,2.25,0.04,2.91c0,0.66,0.01,1.1,0.04,1.33
			C324.53,105.18,324.54,105.33,324.54,105.38z"/>
		<path d="M392.28,157.03c-2.17,0-6.02-3.99-11.55-11.97c-5.32-7.91-7.98-13.12-7.98-15.64c0-0.91,1.92-2.13,5.77-3.67
			c1.96-0.77,3.39-2.05,4.3-3.83c0.91-1.78,1.36-3.94,1.36-6.46c0-1.26-0.16-2.5-0.47-3.73c-0.31-1.22-0.81-2.33-1.47-3.31
			c-0.67-0.98-1.51-1.78-2.52-2.41c-1.02-0.63-2.22-0.98-3.62-1.05c-0.84,0-1.68,0.1-2.52,0.31s-1.63,0.52-2.36,0.94
			s-1.33,0.94-1.78,1.57c-0.46,0.63-0.68,1.33-0.68,2.1v39.37c0,1.47,0.87,2.52,2.62,3.15c1.75,0.63,2.62,1.4,2.62,2.31
			c0,1.54-0.7,2.31-2.1,2.31h-19.84c-1.4,0-2.1-0.77-2.1-2.31c0-0.98,0.87-1.71,2.62-2.2c1.82-0.63,2.73-1.71,2.73-3.25v-39.37
			c0-0.91-0.84-1.64-2.52-2.2c-1.68-0.49-2.52-1.33-2.52-2.52c0-0.7,0.56-1.36,1.68-1.99c1.12-0.63,2.54-1.17,4.25-1.63
			c1.71-0.45,3.59-0.86,5.62-1.21c2.03-0.35,4.01-0.65,5.93-0.89c1.92-0.24,3.62-0.42,5.09-0.52c1.47-0.1,2.48-0.16,3.04-0.16
			c2.66,0,5.28,0.31,7.87,0.94c2.59,0.63,4.92,1.59,6.98,2.89c2.06,1.3,3.74,2.98,5.04,5.04c1.29,2.07,1.94,4.53,1.94,7.4
			c0,1.96-0.31,3.62-0.94,4.99c-0.63,1.36-1.49,2.61-2.57,3.73c-1.09,1.12-2.35,2.15-3.78,3.1c-1.44,0.94-2.92,1.98-4.46,3.1
			c1.19,4.13,3.67,8.58,7.45,13.33c1.89,2.31,3.85,4.22,5.88,5.72c2.03,1.51,3.88,2.85,5.56,4.04c0.7,0.49,1.08,0.96,1.15,1.42
			c0.07,0.46-0.04,0.88-0.31,1.26c-0.28,0.39-0.68,0.7-1.21,0.94c-0.52,0.25-1,0.37-1.42,0.37H392.28z"/>
	</g>
</g>
<g id="レイヤー_3">
	<g>
		<path class="st4" d="M124.98,290.9c-1-0.49-4.53-2.25-5.88-2.92c-0.74-0.37-3.98-1.99-5.96-2.98c-3.09-1.54-5.28-2.63-5.28-6.2
			c0-2.28,1.5-3.99,4.49-5.13c3.28-1.14,5.85-2.6,7.7-4.38c1.85-1.78,2.42-3.67,1.71-5.67l-6.42-20.53
			c-2.14-0.57-4.17-0.96-6.1-1.18c-1.92-0.21-4.17-0.25-6.74-0.11c-2.85,0.72-5.7,1.11-8.56,1.18c-2.85,0.07-5.28-0.25-7.27-0.96
			c-2.28-0.71-3.85-1.67-4.71-2.89c-0.86-1.21-1.28-2.6-1.28-4.17c0-2.99,1.1-4.99,3.32-5.99c2.21-1,5.45-1.5,9.73-1.5
			c2.28,0,4.88,0.04,7.81,0.11c2.92,0.07,5.03-0.53,6.31-1.82c-0.29-1.71-1.11-4.74-2.46-9.09c-1.36-4.35-2.89-8.95-4.6-13.79
			c-1.71-4.85-3.35-9.34-4.92-13.47c-1.57-4.13-2.64-6.84-3.21-8.13c-1.85,3.71-4.06,9.16-6.63,16.36c-2.57,7.2-5.63,15.93-9.2,26.2
			c-4.14,11.41-7.09,20.61-8.88,27.59c-1.78,6.99-2.67,11.76-2.67,14.33c0,3.57,1.92,6.06,5.77,7.49c3.85,1.43,5.77,3.28,5.77,5.56
			c0,3.85-2,5.77-5.99,5.77H36c-2,0-3.18-0.53-3.53-1.6c-0.36-1.07-0.53-2.6-0.53-4.6c3.85-2.99,7.41-5.91,10.69-8.77
			c3.28-2.85,5.49-5.7,6.63-8.56c6.84-19.53,13.29-39,19.36-58.39c6.06-19.39,12.37-39,18.93-58.82c1-2.42,2.6-4.31,4.81-5.67
			c2.21-1.35,4.6-2.03,7.16-2.03c2.99,0,6.13,0.57,9.41,1.71c3.28,1.14,5.42,2.85,6.42,5.13c6.84,19.54,13.69,38.96,20.53,58.28
			c6.84,19.32,13.69,38.75,20.53,58.28c0.71,2.14,4.86,13.25,7.64,17.4c4.51,6.74,6,8,9,12c7,8,7.23,8.59,6,9c-3,1-19.98,0.86-26,0
			c-7-1-12-2-20-4C133.06,293.94,125.62,291.21,124.98,290.9z"/>
		<path class="st4" d="M158.64,174.07c-0.64,0-1.41-0.05-2.31-0.14c-0.9-0.1-1.75-0.29-2.55-0.58c-0.8-0.29-1.49-0.67-2.07-1.16
			s-0.87-1.11-0.87-1.88c0-1.03,0.47-1.86,1.4-2.5c0.93-0.64,2.49-0.96,4.67-0.96c1.93,0,3.5-0.4,4.72-1.2
			c1.22-0.8,2.18-1.86,2.89-3.18c0.71-1.32,1.19-2.79,1.45-4.43c0.26-1.64,0.35-3.32,0.29-5.06c-0.06-1.99-0.34-3.95-0.82-5.88
			s-1.19-3.64-2.12-5.15c-0.93-1.51-2.07-2.73-3.42-3.66c-1.35-0.93-2.92-1.4-4.72-1.4c-1.8,0-3.4,0.55-4.82,1.64
			c-1.41,1.09-2.12,2.5-2.12,4.24v44.51c0,1.8,0.99,3.02,2.99,3.66c1.99,0.64,2.99,1.54,2.99,2.7c0,1.67-0.8,2.5-2.41,2.5h-22.45
			c-1.61,0-2.41-0.83-2.41-2.5c0-1.09,0.99-1.96,2.99-2.6c1.99-0.64,2.99-1.89,2.99-3.76v-44.51c0-1.16-0.93-2.02-2.79-2.6
			c-1.86-0.58-2.79-1.54-2.79-2.89c0-0.9,0.59-1.7,1.78-2.41c1.19-0.71,2.68-1.33,4.48-1.88c1.8-0.55,3.81-1.01,6.02-1.4
			s4.34-0.69,6.36-0.92c2.02-0.22,3.84-0.4,5.44-0.53c1.6-0.13,2.73-0.19,3.37-0.19c3.08,0,6.23,0.43,9.44,1.3
			c3.21,0.87,6.1,2.17,8.67,3.9c2.57,1.73,4.69,3.95,6.36,6.65c1.67,2.7,2.5,5.88,2.5,9.54c0,3.85-0.56,7.23-1.69,10.12
			c-1.12,2.89-2.71,5.28-4.77,7.18c-2.06,1.9-4.5,3.29-7.32,4.19C165.16,173.72,162.05,174.13,158.64,174.07z"/>
		<path class="st4" d="M190.97,207.11c-4.75-7.03-7.13-11.64-7.13-13.82c0-0.74,1.71-1.83,5.13-3.27c1.73-0.69,3.01-1.82,3.83-3.38
			c0.82-1.56,1.23-3.45,1.23-5.68c0-1.09-0.14-2.18-0.41-3.27c-0.27-1.09-0.71-2.08-1.3-2.97s-1.34-1.61-2.23-2.15
			c-0.89-0.54-1.96-0.84-3.19-0.89c-0.74,0-1.5,0.1-2.27,0.3c-0.77,0.2-1.46,0.48-2.08,0.85c-0.66,0.4-1.21,0.89-1.64,1.49
			c-0.37,0.5-0.55,1.12-0.55,1.74l0,34.77c0,1.34,0.77,2.25,2.3,2.75c1.53,0.5,2.3,1.19,2.3,2.08c0,1.34-0.62,2.01-1.86,2.01h-17.46
			c-1.24,0-1.86-0.67-1.86-2.01c0-0.84,0.77-1.51,2.3-2.01c1.58-0.49,2.38-1.44,2.38-2.82v-34.77c0-0.89-0.74-1.56-2.23-2.01
			c-1.44-0.45-2.15-1.19-2.15-2.23c0-0.64,0.48-1.23,1.45-1.75c0.97-0.52,2.2-0.99,3.71-1.41c1.51-0.42,3.18-0.79,5.01-1.11
			c1.83-0.32,3.58-0.58,5.24-0.78c1.66-0.2,3.14-0.35,4.46-0.45c1.31-0.1,2.22-0.15,2.71-0.15c2.33,0,4.64,0.27,6.95,0.82
			c2.3,0.55,4.37,1.4,6.2,2.56c1.83,1.16,3.32,2.66,4.46,4.49c1.14,1.83,1.71,4.01,1.71,6.54c0,1.73-0.29,3.21-0.85,4.42
			c-0.57,1.21-1.33,2.3-2.27,3.27c-0.94,0.97-2.04,1.87-3.31,2.71c-1.26,0.84-2.59,1.76-3.97,2.75c0.49,1.73,1.31,3.62,2.45,5.65
			c1.14,2.03,2.5,4.06,4.09,6.09c1.73,2.08,4.12,5.15,7.17,7.59c16.25,13,69.7,7.62,71.19,8.61c0.59,0.45,0.93,0.88,1,1.3
			c0.07,0.42-0.01,0.79-0.26,1.11c-0.25,0.32-0.59,0.59-1.04,0.82c-0.45,0.22-0.87,0.33-1.26,0.33l-45.79,1.91
			c-1.99-0.31-8.73,0.47-18.07-2.44c-1.69-0.53-7.93-2.97-11.18-5.14C200.38,217.24,194.4,212.14,190.97,207.11z"/>
		<path class="st4" d="M205.03,207.24c-0.99,0-1.48-0.53-1.48-1.6c0-0.67,0.61-1.2,1.84-1.6c1.22-0.39,1.84-1.15,1.84-2.25v-30.16
			c0-1.11-0.61-1.86-1.84-2.25c-1.23-0.39-1.84-0.95-1.84-1.66c0-1.03,0.49-1.54,1.48-1.54h13.93c0.99,0,1.48,0.51,1.48,1.54
			c0,0.67-0.63,1.23-1.9,1.66c-1.23,0.4-1.84,1.15-1.84,2.25v30.16c0,1.11,0.61,1.86,1.84,2.25c1.26,0.44,1.9,0.97,1.9,1.6
			c0,1.07-0.49,1.6-1.48,1.6H205.03z"/>
		<path class="st4" d="M250.81,206c-0.12,0.47-0.45,0.8-1.01,0.98c-0.55,0.18-0.99,0.27-1.3,0.27h-25.54
			c-0.99,0-1.48-0.51-1.48-1.54c0-0.63,0.61-1.15,1.84-1.54c1.22-0.39,1.84-1.19,1.84-2.37v-30.16c0-1.11-0.61-1.86-1.84-2.25
			c-1.23-0.39-1.84-0.95-1.84-1.66c0-1.03,0.49-1.54,1.48-1.54h24.24c0.99,0,1.72,0.29,2.19,0.86c0.47,0.57,0.93,1.35,1.36,2.34
			c0.28,0.55,0.49,1.11,0.65,1.66c0.16,0.55,0.03,1.77-0.03,1.99c-0.06,0.22-0.14,0.43-0.24,0.62c-0.1,0.2-0.23,0.34-0.39,0.41
			c-0.16,0.08-0.38,0.02-0.65-0.18c-0.36-0.24-0.76-0.5-1.21-0.8c-0.45-0.3-0.9-0.58-1.33-0.86c-0.44-0.28-0.83-0.53-1.19-0.77
			c-0.36-0.24-0.61-0.41-0.77-0.53c-0.51-0.32-1.39-0.55-2.64-0.71c-1.24-0.16-2.78-0.24-4.59-0.24c-1.42,0-2.41,0.19-2.96,0.56
			c-0.55,0.38-0.83,0.92-0.83,1.63c0,1.98,0,3.46,0,4.44c0,0.99,0,1.7,0,2.13c0,0.44,0,0.68,0,0.74c0,0.06,0,0.13,0,0.21
			c0,0.4,0.08,0.7,0.24,0.92c0.16,0.22,0.36,0.38,0.62,0.47c0.26,0.1,0.52,0.16,0.8,0.18c0.28,0.02,0.53,0.03,0.77,0.03
			c0.24,0,0.53-0.01,0.89-0.03c0.36-0.02,0.73-0.05,1.13-0.09c0.39-0.04,0.78-0.07,1.16-0.09c0.37-0.02,0.68-0.03,0.92-0.03
			c1.07,0,1.95,0.19,2.64,0.56c0.69,0.38,1.04,1.06,1.04,2.04c0,0.99-0.35,1.66-1.04,2.01c-0.69,0.36-1.65,0.53-2.87,0.53
			c-0.55,0-1.19-0.04-1.9-0.12c-0.71-0.08-1.36-0.12-1.96-0.12c-0.55,0-1.1,0.12-1.63,0.36c-0.53,0.24-0.8,0.73-0.8,1.48v12.98
			c0,0.91,0.14,1.48,0.41,1.72c0.28,0.24,0.89,0.38,1.84,0.41c0.47,0.04,1.16,0.06,2.07,0.06c0.91,0,1.83,0,2.76,0
			c0.93,0,1.78-0.01,2.55-0.03c0.77-0.02,1.27-0.03,1.51-0.03c0.32,0.2,0.79,0.08,1.42-0.36c0.63-0.43,1.29-0.96,1.99-1.57
			c0.69-0.61,1.32-1.19,1.9-1.72c0.57-0.53,0.96-0.8,1.16-0.8c0.43,0,0.8,0.11,1.1,0.33c0.3,0.22,0.44,0.54,0.44,0.98
			c0,0.28-0.12,0.72-0.36,1.33c-0.24,0.61-0.51,1.24-0.83,1.9c-0.32,0.65-0.63,1.26-0.95,1.84
			C251.27,205.41,251.01,205.8,250.81,206z"/>
		<path class="st4" d="M282.41,207.24c-1.58,0-4.29-2.8-8.12-8.41c-3.79-5.61-5.69-9.28-5.69-11.02c0-0.59,1.36-1.46,4.09-2.61
			c1.38-0.55,2.4-1.45,3.05-2.7c0.65-1.24,0.98-2.76,0.98-4.53c0-0.87-0.11-1.74-0.33-2.61c-0.22-0.87-0.56-1.66-1.04-2.37
			c-0.47-0.71-1.07-1.28-1.78-1.72c-0.71-0.43-1.56-0.67-2.55-0.71c-0.59,0-1.2,0.08-1.81,0.24c-0.61,0.16-1.17,0.39-1.66,0.68
			c-0.49,0.3-0.91,0.66-1.24,1.1c-0.34,0.44-0.5,0.93-0.5,1.48v27.73c0,1.07,0.61,1.8,1.84,2.19c1.22,0.4,1.84,0.95,1.84,1.66
			c0,1.07-0.49,1.6-1.48,1.6h-13.93c-0.99,0-1.48-0.53-1.48-1.6c0-0.67,0.61-1.2,1.84-1.6c1.26-0.39,1.9-1.15,1.9-2.25v-27.73
			c0-0.71-2.53-2.88-3.72-3.24c-1.15-0.36-9.49-3.82-9.75-4.6c0,0,27.59-0.04,27.99-0.04c1.86,0,3.7,0.22,5.54,0.65
			c1.84,0.44,3.49,1.12,4.95,2.04c1.46,0.93,2.65,2.12,3.56,3.58c0.91,1.46,1.36,3.2,1.36,5.21c0,1.38-0.23,2.56-0.68,3.53
			c-0.45,0.97-1.06,1.84-1.81,2.61c-0.75,0.77-1.63,1.49-2.64,2.16c-1.01,0.67-2.06,1.4-3.17,2.19c0.39,1.38,1.05,2.88,1.96,4.5
			c0.91,1.62,1.99,3.24,3.26,4.86c1.38,1.66,2.77,3.02,4.18,4.09c1.4,1.07,2.7,2,3.88,2.79c0.47,0.36,0.74,0.7,0.8,1.04
			c0.06,0.34-0.01,0.63-0.21,0.89c-0.2,0.26-0.47,0.47-0.83,0.65s-0.69,0.27-1.01,0.27H282.41z"/>
	</g>
</g>
</svg>
